<svg width="378" height="65" viewBox="0 0 378 65" xmlns="http://www.w3.org/2000/svg"><title>logo Rabota_ru red</title><path d="M302.42 12.284h7.113c3.962 0 6.756.813 8.387 2.444 1.362 1.341 2.046 3.469 2.046 6.375 0 3.215-.703 5.432-2.094 6.682-1.532 1.404-4.412 2.093-8.609 2.093h-6.843V12.284zm1.226 28.427h-1.231l.005 23.891h-12.964V1.509h20.679c7.543 0 13.309 1.776 17.32 5.34a16.166 16.166 0 0 1 3.725 4.923 24.498 24.498 0 0 1 1.509 4.945V1.486h11.586v40.302c0 3.705.912 6.618 2.732 8.708 1.889 2.175 4.605 3.275 8.102 3.275 3.516 0 6.233-1.1 8.169-3.275 1.805-2.125 2.713-5.02 2.713-8.708V1.486h11.586v40.317c0 6.406-2.001 11.743-5.995 16.014-4.169 4.489-9.666 6.739-16.473 6.739-6.808 0-12.285-2.25-16.476-6.739-3.959-4.251-5.944-9.588-5.944-16.014l-.038-15.474c-.321 1.441-.806 2.795-1.471 3.996a16.493 16.493 0 0 1-3.275 4.52c-2.813 2.765-6.538 4.537-11.155 5.354l16.765 24.403H320.04l-16.394-23.891zm-30.721 23.891V53.21h11.342v11.392h-11.342zM12.959 12.684h7.113c3.962 0 6.756.813 8.384 2.442 1.365 1.343 2.052 3.469 2.052 6.375 0 3.215-.705 5.434-2.097 6.682-1.532 1.406-4.41 2.096-8.613 2.096h-6.839V12.684zm55.043 4.636l7.464 20.467h-14.78l7.316-20.467zm39.164 29.448V35.202h7.797c4.286 0 7.793 3.51 7.793 7.798v3.768c0 4.287-3.507 7.794-7.793 7.794-.184 0-.365-.01-.542-.023h-7.255v-7.771zm0-27.212V11.97h5.623c2.796 0 5.115 2.317 5.115 5.117v2.469c0 2.815-2.304 5.115-5.115 5.115-.119 0-.241-.004-.359-.01h-5.264v-5.105zm42.396-2.076c3.709-3.801 8.567-5.723 14.591-5.723 6.04 0 10.898 1.922 14.588 5.723 3.708 3.818 5.545 8.882 5.545 15.181 0 6.232-1.837 11.283-5.545 15.15-3.722 3.87-8.58 5.804-14.588 5.804-5.995 0-10.854-1.934-14.559-5.804-3.722-3.867-5.578-8.918-5.578-15.15 0-6.299 1.856-11.363 5.546-15.181zm90.68-.506l7.447 20.465h-14.78l7.333-20.465zM14.189 41.111L30.587 65h20.141l5.815-15.818H79.62L85.372 65l10.224-.044 17.305.035c6.888 0 12.337-1.563 16.283-5.62 2.234-2.305 3.934-4.992 4.751-8.242.487-2.332.736-4.885.628-7.425.594 1.952 1.268 3.625 1.898 4.85a17.4 17.4 0 0 0 1.101 1.99 29.892 29.892 0 0 0 4.107 5.466c5.735 5.978 13.229 8.965 22.484 8.965 9.27 0 16.762-2.987 22.484-8.965 5.738-5.958 8.592-13.743 8.592-23.349 0-8.039-1.978-14.753-5.876-20.165l11.961-.081v52.242h21.637l5.819-15.818h23.078l5.747 15.818h12.035L244.911 1.583h-9.302L212.913 59.58l-.029-47.165h13.509V1.583h-38.636V9.7l-.006.763a41.48 41.48 0 0 0-.604-.685c-.157-.174-.301-.37-.478-.543-5.703-5.882-13.198-8.821-22.516-8.821-9.302 0-16.797 2.939-22.502 8.821-5.27 5.431-8.069 12.526-8.485 21.223-.087.441-.143.952-.174 1.513a31.43 31.43 0 0 0 .148 4.685c-.844-2.058-2.073-3.918-3.792-5.419-.487-.518-2.861-2.071-4.226-2.332 3.237-2.902 4.696-7.058 4.11-13.548-.2-8.476-7.886-13.925-16.264-13.869H95.667l-.135.252v42.784l.052 16.136-6.198-16.128L72.684 1.93h-9.301L57.2 17.749l-8.199 20.933-8.336 21.319-13.37-19.399c4.616-.818 8.338-2.594 11.151-5.355a16.664 16.664 0 0 0 3.28-4.521c2.541-5.352 3.286-12.855 0-18.556a16.345 16.345 0 0 0-3.728-4.921c-4.009-3.566-9.776-5.338-17.319-5.338H0V65h12.959V41.111h1.23z" fill="#F2412F" fill-rule="evenodd"/></svg>